<svg id="Capa_1" data-name="Capa 1" xmlns="http://www.w3.org/2000/svg" xmlns:xlink="http://www.w3.org/1999/xlink" viewBox="0 0 458.78 339.69"><defs><style>.cls-1,.cls-5{fill:#ffed00;}.cls-1,.cls-2,.cls-3,.cls-6{stroke:#1d1d1b;stroke-miterlimit:10;}.cls-2{fill:#143257;}.cls-3,.cls-4{fill:#1d71b8;}.cls-6{fill:url(#Viñeta_negra_supersuave);}</style><radialGradient id="Viñeta_negra_supersuave" cx="458.06" cy="131.11" r="0.35" gradientUnits="userSpaceOnUse"><stop offset="0.57" stop-color="#161412" stop-opacity="0"/><stop offset="0.8" stop-color="#161412" stop-opacity="0.65"/><stop offset="0.83" stop-color="#161412" stop-opacity="0.74"/><stop offset="1" stop-color="#161412" stop-opacity="0.95"/></radialGradient></defs><title>logoNutriclient</title><rect class="cls-1" x="219.14" y="102.8" width="64.4" height="299.98" transform="translate(-154.75 210.12) rotate(-45.13)"/><rect class="cls-2" x="253.51" y="45.61" width="64.4" height="223.12" transform="translate(326.29 428.08) rotate(-134.87)"/><rect class="cls-2" x="345.57" y="239.93" width="48.44" height="145.21" transform="translate(359.58 752.64) rotate(-134.87)"/><rect class="cls-2" x="21.06" y="34.66" width="63" height="304.44"/><rect class="cls-3" x="185.59" y="27.7" width="70.72" height="353.84" transform="translate(-129.56 174.39) rotate(-45.13)"/><rect class="cls-3" x="0.5" y="12.22" width="70.44" height="326.89"/><rect class="cls-1" x="246.05" y="32.14" width="64.4" height="231.39" transform="translate(320.17 406.88) rotate(-134.87)"/><rect class="cls-1" x="336.12" y="43.84" width="55.33" height="128.53" transform="translate(-19.09 247.2) rotate(-45.13)"/><rect class="cls-1" x="339.03" y="235.07" width="49.33" height="145.04" transform="translate(352.7 739.91) rotate(-134.87)"/><path class="cls-4" d="M122.44,154.72c3.22,0,3.23-5,0-5s-3.22,5,0,5Z" transform="translate(-49.61 -42.45)"/><path class="cls-4" d="M133,153.61c3.22,0,3.22-5,0-5s-3.22,5,0,5Z" transform="translate(-49.61 -42.45)"/><path class="cls-4" d="M124.85,149.11a15.14,15.14,0,0,0-6-1.19c-1.81,0-3.62.14-5.44,0v5L127.55,154a2.51,2.51,0,0,0,2.5-2.5,2.56,2.56,0,0,0-2.5-2.5l-14.13-1.09a2.52,2.52,0,0,0-2.5,2.5,2.56,2.56,0,0,0,2.5,2.5c1.65.13,3.3,0,5,0,.78,0,1.54,0,2.31.1.29,0-.28-.07.17,0l.59.13c.19,0,.39.1.58.16s.72.27.31.09a2.57,2.57,0,0,0,3.42-.9c.57-1.08.38-2.86-.9-3.42Z" transform="translate(-49.61 -42.45)"/><path class="cls-4" d="M122.86,148.85a29,29,0,0,1,.57-13.1,26.79,26.79,0,0,0,1.09-6.53,14.94,14.94,0,0,0-1.67-6.71c-1.44-2.89-5.75-.36-4.32,2.52,1.93,3.87.37,7.7-.47,11.63a33.11,33.11,0,0,0,0,13.52,2.5,2.5,0,0,0,4.82-1.33Z" transform="translate(-49.61 -42.45)"/><path class="cls-4" d="M117.14,57.24c-.66,4.37-.14,8.6.39,13a96.89,96.89,0,0,1,.63,13c0,4.27-.23,8.54-.17,12.81A90.74,90.74,0,0,0,119.21,109a19.23,19.23,0,0,1,0,6.51,33.12,33.12,0,0,0-.86,7.21h5a10.51,10.51,0,0,1,.27-3.87c.82-3.11-4-4.44-4.82-1.32a14.41,14.41,0,0,0-.45,5.19,2.57,2.57,0,0,0,2.5,2.5,2.53,2.53,0,0,0,2.5-2.5c-.18-4.08,1.45-7.94,1-12.06-.21-2.07-.64-4.1-.91-6.17s-.42-4.25-.49-6.38c-.29-8.53.6-17.08-.24-25.59-.45-4.61-1.53-9.35-.84-14a2.59,2.59,0,0,0-1.75-3.08,2.51,2.51,0,0,0-3.07,1.75Z" transform="translate(-49.61 -42.45)"/><path class="cls-4" d="M120.11,56.74a.63.63,0,0,0,0-1.25.63.63,0,0,0,0,1.25Z" transform="translate(-49.61 -42.45)"/><path class="cls-4" d="M120,56.62a.63.63,0,0,0,0-1.25.63.63,0,0,0,0,1.25Z" transform="translate(-49.61 -42.45)"/><path class="cls-4" d="M119.89,56.62a.63.63,0,0,0,0-1.25.63.63,0,0,0,0,1.25Z" transform="translate(-49.61 -42.45)"/><path class="cls-4" d="M119.89,56.74a.63.63,0,0,0,0-1.25.63.63,0,0,0,0,1.25Z" transform="translate(-49.61 -42.45)"/><path class="cls-5" d="M298.67,84.46a8.28,8.28,0,0,0,3.22-1,.63.63,0,0,0-.31-1.17,4.17,4.17,0,0,0-2.87,1.1l1.05.61a.88.88,0,0,1,.71-.49L300,82.34l-1,.45.63,1.08c.33-.24,1-.68,1.41-.5l-.38-.29s-.3.76-.32.82l-.38,1a.64.64,0,0,0,.44.77,4.59,4.59,0,0,0,2.3,0l-.33-1.21c-.49.13-1,.28-1.45.44l.48,1.14a1.45,1.45,0,0,0,.69-1.85,1.9,1.9,0,0,0-2.06-1,.62.62,0,0,0-.16,1.22c1.51.52,3.65,1.27,3.86,3.15l.94-.54-2.18-1.31c-.44-.26-1.12.18-.92.71a8.81,8.81,0,0,0,2.35,3.45.63.63,0,0,0,1-.12,2.61,2.61,0,0,0-.49-3.06.63.63,0,0,0-1.07.44,9.78,9.78,0,0,0,1.86,6c.29.39,1,.43,1.14-.15a4.41,4.41,0,0,0-.63-3.37.63.63,0,0,0-1.15.48,5.22,5.22,0,0,0,1.4,2.81.63.63,0,0,0,1.05-.27,13.79,13.79,0,0,0-.23-5.65.63.63,0,0,0-1.23.16q-.1,2.36,0,4.71l1.23-.17a24.12,24.12,0,0,0-2-5.9c-.28-.59-1.14-.26-1.16.32a9.06,9.06,0,0,0,1.22,5c.24.43,1.06.41,1.14-.15a19.4,19.4,0,0,0,.08-5l-1.23.17c.49,1.72,1,3.44,1.54,5.14.28.85.57,1.7.88,2.53a5.66,5.66,0,0,0,.95,2.05,1,1,0,0,0,1.48,0,4.59,4.59,0,0,0,.62-2.1,35.59,35.59,0,0,0,.6-5.26.64.64,0,0,0-1.17-.32,1.39,1.39,0,0,0,.43,1.9c.66.46,1.29-.62.63-1.08,0-.07,0-.13,0-.18l-1.16-.32a34.9,34.9,0,0,1-.42,4.21c-.12.68-.25,1.36-.41,2-.05.21-.14.24.1.26s.1-.1,0-.25c-.16-.33-.28-.68-.41-1-1-2.59-1.74-5.25-2.5-7.91-.19-.65-1.31-.55-1.23.17a17.76,17.76,0,0,1,0,4.72l1.15-.15a7.89,7.89,0,0,1-1-4.35l-1.17.31a23.47,23.47,0,0,1,1.86,5.6.62.62,0,0,0,1.22-.16q-.08-2.36,0-4.71l-1.22.17a12.3,12.3,0,0,1,.22,5l1-.27a4,4,0,0,1-1.08-2.26l-1.14.48a3.17,3.17,0,0,1,.51,2.41l1.14-.15a8.72,8.72,0,0,1-1.69-5.35l-1.06.44a1.34,1.34,0,0,1,.29,1.55l1-.13a7.49,7.49,0,0,1-2-2.91l-.92.71L304,88.11c.38.22,1-.06.94-.54-.28-2.55-2.63-3.61-4.78-4.35L300,84.45c.25,0,.64-.07.83.15a.23.23,0,0,1-.09.41c-.65.28-.19,1.37.48,1.15.48-.17,1-.31,1.45-.44a.63.63,0,0,0-.33-1.21,3.15,3.15,0,0,1-1.64,0l.44.77c.22-.61.49-1.22.66-1.85a1,1,0,0,0-.25-1.14c-.69-.57-2,.07-2.58.51a.63.63,0,0,0,.63,1.08l1-.45c.69-.31.17-1.26-.48-1.14a2.11,2.11,0,0,0-1.59,1.36c-.26.62.63,1,1.05.61a2.84,2.84,0,0,1,2-.74l-.32-1.16a7,7,0,0,1-2.59.86c-.79.09-.8,1.34,0,1.25Z" transform="translate(-49.61 -42.45)"/><path class="cls-5" d="M307.87,88.89l.5,5a.63.63,0,0,0,1.25,0,8.32,8.32,0,0,0-2.35-6.56.62.62,0,0,0-1,.27,16.45,16.45,0,0,0-.13,6.88.64.64,0,0,0,.92.38,2.13,2.13,0,0,0,1-1.91c.16-1.5.22-3,.33-4.52l-1.23.16q.39,2.86,1,5.68a.63.63,0,0,0,1.21,0,23.9,23.9,0,0,0,.61-3.66l-1.23.16c.86,2.54,1.6,5.1,2.22,7.71.18.73,1.17.49,1.23-.17a18.11,18.11,0,0,0-.45-6.18.63.63,0,0,0-1.23.16,10.38,10.38,0,0,0,1,4.35c.29.63,1.1.22,1.16-.32l.37-3.06h-1.25a82.11,82.11,0,0,0,1.4,10.82c.13.65,1,.53,1.21,0a7.87,7.87,0,0,0-.43-6.3.63.63,0,0,0-1.14.15,11.18,11.18,0,0,0-.25,5.45c.14.71,1.2.51,1.22-.17a36.32,36.32,0,0,0-.78-11c-.22-.8-1.33-.45-1.2.33a117.19,117.19,0,0,0,2.83,13.08.63.63,0,0,0,1.23-.17,132.06,132.06,0,0,0-.41-16.28c-.07-.79-1.31-.81-1.25,0,.38,5,1,10.07,1.71,15.07.09.59,1.13.6,1.21,0a25.54,25.54,0,0,0-1.35-12.49c-.2-.53-1.06-.65-1.21,0a23.27,23.27,0,0,0-.58,6.86.63.63,0,0,0,1.25,0,6.42,6.42,0,0,0-.7-3.39.63.63,0,0,0-1.14.15,8.74,8.74,0,0,0,.24,3.84.63.63,0,0,0,1.23-.17,9.81,9.81,0,0,0-.17-3.33c-.17-.79-1.35-.45-1.2.33a25.81,25.81,0,0,0,2.8,7.75.63.63,0,0,0,1.14-.15,15.78,15.78,0,0,0,.86-5H317l0,3.91a.63.63,0,0,0,1.16.31A2.18,2.18,0,0,0,318,100a.62.62,0,0,0-1,.27,20.17,20.17,0,0,0,0,8.08c.13.63,1,.54,1.2,0a33.47,33.47,0,0,0,1.51-8h-1.25a52.73,52.73,0,0,0,.7,9,.63.63,0,0,0,1.2,0,38.08,38.08,0,0,0,.4-6.4.63.63,0,0,0-1.25,0,45.65,45.65,0,0,0,.3,7.75c.08.65,1.05.91,1.23.17a41.18,41.18,0,0,0,1.14-8.56c0-.82-1.17-.78-1.25,0a102.72,102.72,0,0,0-.59,11,.63.63,0,0,0,1.23.17,51.57,51.57,0,0,0,2.37-11.85c.06-.77-1-.76-1.23-.17a20.25,20.25,0,0,0-1.55,7.36.62.62,0,0,0,1.22.17,20.35,20.35,0,0,0,.59-4.18h-1.25v3.53a.63.63,0,0,0,1.23.16,14.23,14.23,0,0,0,.79-3.59c.08-.8-1.15-.78-1.25,0a17.18,17.18,0,0,0,0,3.86c.06.57.84.91,1.16.32a9.69,9.69,0,0,0,1-2.64l-1.22-.16a26.66,26.66,0,0,0-.16,4.81.62.62,0,0,0,1.22.16,19.56,19.56,0,0,0,1.21-6.46c0-.83-1.15-.78-1.25,0a37.21,37.21,0,0,0-.21,6.84.63.63,0,0,0,1.23.16,22.87,22.87,0,0,0,1.14-4.77c.1-.72-1-.81-1.22-.17a25.84,25.84,0,0,0-1.14,6.47.63.63,0,0,0,1.17.31,4.89,4.89,0,0,0,.64-1.65l-1.23-.16a6.38,6.38,0,0,0,.72,3.4.63.63,0,0,0,1.08,0,18.79,18.79,0,0,0,2.06-7.29.62.62,0,0,0-1.22-.16,25.38,25.38,0,0,0-.81,7.15.63.63,0,0,0,1.23.17,29.15,29.15,0,0,0,1.78-9.46.63.63,0,0,0-1.23-.17,63.32,63.32,0,0,0-1.11,6.42c-.09.8,1.15.79,1.25,0a28.2,28.2,0,0,0,0-6.87.63.63,0,0,0-1.23-.16,27.8,27.8,0,0,0-1.92,7.88c-.07.71,1.06.85,1.23.17a26.76,26.76,0,0,0,.75-6.24c0-.68-1.1-.88-1.22-.17a29.07,29.07,0,0,0-.42,6c0,.5.7.88,1.06.44a6.29,6.29,0,0,0,1.42-2.79.63.63,0,0,0-1.21-.33,35.2,35.2,0,0,0-1.27,5.15.62.62,0,0,0,1.2.33l1.19-3.6-1.2-.34-.85,4a.63.63,0,0,0,1.21.34c.68-1.8,1.29-3.61,1.82-5.46l-1.21-.33c-.32,2.07-.56,4.14-.7,6.23-.06.76,1,.76,1.22.16a25.11,25.11,0,0,0,1.47-5.09l-1.23-.17-.21,4.08c0,.73,1,.81,1.23.16l1.16-3.6-1.21-.33a19.54,19.54,0,0,0-.42,4.32c0,.75-.13,2.16.74,2.54,1.83.8,2.83-3.49,3-4.54.11-.79-1.09-1.13-1.21-.33L331,118c-.11.77,1,1.13,1.21.33l.89-4.23a.63.63,0,0,0-1.21-.33l-1.18,3.61,1.23.16,0-5.27a.63.63,0,0,0-1.23-.17,24,24,0,0,0-.82,5.52c0,.75,1,.79,1.23.17A18.79,18.79,0,0,0,332.3,112h-1.25l-.12,4.42c0,.81,1.19.8,1.25,0l.25-3.69c.06-.81-1.18-.8-1.25,0-.2,2.25-.1,4.19,1.31,6.05s3.14,3.77,4.71,5.64c.51.62,1.39-.27.88-.88-1.36-1.62-2.73-3.23-4.08-4.86a6.5,6.5,0,0,1-1.56-2.79,10.79,10.79,0,0,1,0-3.16h-1.25l-.25,3.69h1.25l.12-4.42a.63.63,0,0,0-1.25,0,18,18,0,0,1-1.13,5.49l1.22.17a23.33,23.33,0,0,1,.77-5.19l-1.22-.16,0,5.27a.63.63,0,0,0,1.23.17l1.18-3.61-1.21-.33L331,118l1.21.33.71-4.81-1.21-.33a9.87,9.87,0,0,1-.41,1.77,3.42,3.42,0,0,1-.52,1.15c-.28.29-.12.49-.31.1a5.59,5.59,0,0,1,0-2.08,17.49,17.49,0,0,1,.36-2.6.63.63,0,0,0-1.21-.33l-1.16,3.6,1.23.17.21-4.08c0-.69-1.11-.86-1.23-.16a25.09,25.09,0,0,1-1.46,5.09l1.23.17c.13-2,.35-3.94.66-5.9a.63.63,0,0,0-1.21-.33c-.53,1.84-1.13,3.66-1.82,5.45l1.21.34.84-4a.62.62,0,0,0-1.2-.34l-1.19,3.61,1.2.33a35.23,35.23,0,0,1,1.28-5.15l-1.21-.33A5,5,0,0,1,326,111.9l1.07.44a27.81,27.81,0,0,1,.37-5.62l-1.23-.17a25.08,25.08,0,0,1-.71,5.91l1.23.16a26.31,26.31,0,0,1,1.88-7.55l-1.23-.17a28.2,28.2,0,0,1,0,6.87h1.25a60.15,60.15,0,0,1,1.07-6.09l-1.23-.16a28.15,28.15,0,0,1-1.74,9.12l1.23.17a23.81,23.81,0,0,1,.76-6.82l-1.23-.17a17.23,17.23,0,0,1-1.89,6.66h1.08a5.19,5.19,0,0,1-.55-2.77.63.63,0,0,0-1.23-.17,4.09,4.09,0,0,1-.51,1.35l1.16.32a24.5,24.5,0,0,1,1.09-6.13l-1.23-.17a21.21,21.21,0,0,1-1.1,4.44l1.23.17a37.21,37.21,0,0,1,.21-6.84h-1.25a18.66,18.66,0,0,1-1.16,6.13l1.23.17a26.66,26.66,0,0,1,.16-4.81c.08-.7-1.08-.85-1.23-.17a8.46,8.46,0,0,1-.87,2.34l1.17.31a17.18,17.18,0,0,1,0-3.86h-1.25a12.87,12.87,0,0,1-.74,3.26l1.22.17v-3.53a.63.63,0,0,0-1.25,0,19,19,0,0,1-.54,3.84l1.23.17a19,19,0,0,1,1.5-7l-1.22-.17A49.73,49.73,0,0,1,320.35,113l1.23.17a102.72,102.72,0,0,1,.59-11h-1.25a38.62,38.62,0,0,1-1.1,8.22l1.23.17a45.65,45.65,0,0,1-.3-7.75H319.5a36.3,36.3,0,0,1-.35,6.07h1.2a51.93,51.93,0,0,1-.65-8.63c0-.81-1.19-.79-1.25,0A32,32,0,0,1,317,108h1.2a18.44,18.44,0,0,1,0-7.4l-1.05.27a1,1,0,0,1,0,1.39l1.17.32,0-3.91a.63.63,0,0,0-1.25,0,14.77,14.77,0,0,1-.81,4.66l1.14-.14a25.09,25.09,0,0,1-2.68-7.45l-1.2.33a9.16,9.16,0,0,1,.12,3l1.23-.16a7.29,7.29,0,0,1-.25-3.18l-1.14.15a5.26,5.26,0,0,1,.53,2.76h1.25a22.07,22.07,0,0,1,.54-6.53h-1.21a24.21,24.21,0,0,1,1.35,11.83h1.21q-1.11-7.34-1.67-14.74H314.2a132.06,132.06,0,0,1,.41,16.28l1.22-.16A119.47,119.47,0,0,1,313,92.21l-1.2.33a35.13,35.13,0,0,1,.73,10.63l1.23-.16a9.8,9.8,0,0,1,.26-4.78l-1.15.15a6.58,6.58,0,0,1,.3,5.32h1.21A78.44,78.44,0,0,1,313,93.22a.63.63,0,0,0-1.25,0l-.37,3.06,1.17-.32a8.93,8.93,0,0,1-.83-3.71l-1.23.17a17,17,0,0,1,.41,5.85l1.23-.17q-.93-3.9-2.22-7.7a.63.63,0,0,0-1.23.17,20.88,20.88,0,0,1-.57,3.33h1.21c-.42-1.88-.75-3.77-1-5.68-.1-.74-1.18-.49-1.23.17l-.2,2.71c0,.58.12,2.31-.51,2.64l.92.37a15,15,0,0,1,.12-6.22l-1,.28a7.15,7.15,0,0,1,2,5.68h1.25l-.5-5c-.08-.79-1.33-.8-1.25,0Z" transform="translate(-49.61 -42.45)"/><path class="cls-5" d="M343.47,127.49l.17-.22-.1.13a8.7,8.7,0,0,1,1.47-1.5.63.63,0,0,0,0-.88.62.62,0,0,0-.44-.18l-.17,0a.57.57,0,0,0-.27.16,9.2,9.2,0,0,0-1.74,1.84.62.62,0,0,0-.06.48.6.6,0,0,0,.29.37.62.62,0,0,0,.48.07.76.76,0,0,0,.37-.29Z" transform="translate(-49.61 -42.45)"/><path class="cls-5" d="M343.55,127.1l.06-.08c.05-.07-.08.09,0,0a1.71,1.71,0,0,1,.11-.14l.26-.26.08-.06s.09-.07,0,0l0,0,.07,0a2.63,2.63,0,0,1,.33-.2l.16-.08.07,0h0a2.42,2.42,0,0,1,.35-.12l.18,0h.08s.15,0,0,0,0,0,0,0h.31a.63.63,0,0,0,0-1.25,4,4,0,0,0-3.2,1.72.63.63,0,0,0,.23.86.64.64,0,0,0,.85-.23Z" transform="translate(-49.61 -42.45)"/><path class="cls-5" d="M342,124.85a1.62,1.62,0,0,1-.28-1.8c.26-.52-.29-1.22-.85-.85-.83.53-2.14,2.32-1.06,3.23a1.42,1.42,0,0,0,1.61,0s.39-.2.37-.15c0-.4-.11-.52-.24-.35a1,1,0,0,0-.13.15,1.08,1.08,0,0,0-.29.76.65.65,0,0,0,.8.61,1.21,1.21,0,0,0,.91-.84l-1.21-.33-.21,1c-.06.3.09.73.44.77a1.21,1.21,0,0,0,1.41-.86,1.56,1.56,0,0,0-.58-1.64,14.73,14.73,0,0,0-2.13-1.35l-.65-.39c-.19-.12-.38-.39-.44-.12.05-.23.82-.74,1-.89l-1-.13a1.25,1.25,0,0,1,.21.92l1.23.16,0-2.45c0-.58-.91-.92-1.16-.32a5.68,5.68,0,0,0-.5,2.26h1.25A4.12,4.12,0,0,0,339,119a.65.65,0,0,0-.89,0,2.33,2.33,0,0,0-.5,2.71c.21.48.83.32,1.08,0a1.31,1.31,0,0,0,.26-.92.63.63,0,0,0-1.23-.17,2.86,2.86,0,0,0,.13,2.13c.26.58,1.18.27,1.17-.32a9.34,9.34,0,0,0-1.26-4.49.63.63,0,0,0-1.08,0,5,5,0,0,0-.31,3.66.63.63,0,0,0,1.23-.17,8.9,8.9,0,0,0-.56-4.39c-.2-.5-1.1-.68-1.21,0a13.34,13.34,0,0,0,.09,4.63l1.21-.33a54.64,54.64,0,0,0-1.81-6.3.63.63,0,0,0-1.23.17,20.38,20.38,0,0,0,.47,6.18c.19.79,1.36.45,1.21-.33q-.57-2.91-1.34-5.77c-.18-.66-1.3-.55-1.23.16q.24,2.41.63,4.8l1.21-.33a39.39,39.39,0,0,0-2.29-6.52c-.29-.67-1.31-.19-1.14.48a16.64,16.64,0,0,0,1.19,3.2c.35.71.82,1.87,1.8,1.41a.59.59,0,0,0,.31-.53v-.08c-.07-.79-1.32-.8-1.25,0v.08l.31-.54c.33-.16.46,0,.23-.37-.08-.13-.15-.26-.22-.4-.17-.34-.34-.69-.49-1a16.13,16.13,0,0,1-.67-2.07l-1.15.49a38.16,38.16,0,0,1,2.16,6.22c.2.8,1.33.45,1.21-.33-.25-1.48-.44-3-.59-4.47l-1.23.17q.78,2.87,1.34,5.77l1.21-.33a19.19,19.19,0,0,1-.43-5.85l-1.23.17a51.27,51.27,0,0,1,1.81,6.29c.17.79,1.36.45,1.21-.33a11.27,11.27,0,0,1-.09-4h-1.21a8.16,8.16,0,0,1,.52,4.06l1.23-.16a3.71,3.71,0,0,1,.18-2.7H336.7a8.08,8.08,0,0,1,1.09,3.86l1.16-.31a1.53,1.53,0,0,1,0-1.17l-1.23-.16a.24.24,0,0,1-.09.29h1.08a1.06,1.06,0,0,1,.31-1.2h-.89a2.94,2.94,0,0,1,1.15,2.32.63.63,0,0,0,1.25,0,4,4,0,0,1,.33-1.63l-1.17-.31,0,2.45c0,.68,1.11.89,1.23.17a2.64,2.64,0,0,0-.34-1.88.63.63,0,0,0-1-.12c-.44.39-1.14.82-1.35,1.39a1.07,1.07,0,0,0,.54,1.27c.65.44,1.35.82,2,1.22.31.19.64.36.94.58s.31.45.46.47l.43.77.22-1a.63.63,0,0,0-1.21-.33l0,0,.79.6s.31-.35.35-.42a1,1,0,0,0,.08-.67,1,1,0,0,0-1-.72,1.71,1.71,0,0,0-.67.14c-.07,0-.63.28-.64.3.16.24.24.28.22.12a.45.45,0,0,1,0-.16,2.54,2.54,0,0,1,.15-.44,1.74,1.74,0,0,1,.62-.67l-.86-.86a2.89,2.89,0,0,0,.48,3.31c.55.59,1.43-.29.88-.88Z" transform="translate(-49.61 -42.45)"/><ellipse class="cls-6" cx="458.06" cy="131.11" rx="0.22" ry="0.44"/><path class="cls-5" d="M300.37,339.46l9.69,7.66s0-.82,0-.73v-3.54c0-.11.06-.67,0-.73l-9.69-7.66s0,.82,0,.73c0,.59,0,1.18,0,1.77s0,1.18,0,1.77c0,.11-.06.67,0,.73Z" transform="translate(-49.61 -42.45)"/><path class="cls-5" d="M294.74,340.71c8.58,2.82,16.66,6.94,25.19,9.91a23.46,23.46,0,0,1,0-2.5,11.49,11.49,0,0,0,0-2.5c-8.53-3-16.61-7.09-25.19-9.91a23.47,23.47,0,0,1,0,2.5,12.16,12.16,0,0,0,0,2.5Z" transform="translate(-49.61 -42.45)"/><path class="cls-5" d="M295,340.64q2.71,1.19,5.42,2.43s0-.85,0-.74c0-.59,0-1.18,0-1.76s0-1.18,0-1.77a2.87,2.87,0,0,0,0-.73q-2.7-1.24-5.42-2.43s0,.84,0,.73c0,.59,0,1.18,0,1.77s0,1.17,0,1.76a3,3,0,0,0,0,.74Z" transform="translate(-49.61 -42.45)"/><path class="cls-5" d="M296.43,336.9a13.43,13.43,0,0,1-2-2.36,1.48,1.48,0,0,0,0,.21c0,.18,0,.35,0,.52,0,.59,0,1.18,0,1.77s0,1.18,0,1.77v.39c0,.11,0,.23,0,.34a13.43,13.43,0,0,0,2,2.36,1.55,1.55,0,0,0,0-.22c0-.17,0-.34,0-.51,0-.59,0-1.18,0-1.77s0-1.18,0-1.77v-.39c0-.11,0-.23,0-.34Z" transform="translate(-49.61 -42.45)"/><path class="cls-5" d="M297.67,340.26c1,0,2,.53,3.06.45,0,0,0-.84,0-.73,0-.59,0-1.18,0-1.77s0-1.18,0-1.77v-.39c0-.11,0-.23,0-.34a4,4,0,0,0-1-.74v5c.15,0,.36.11.47-.05s0-.23,0-.33c0-.87,0-1.74,0-2.61,0-.69,0-1.39,0-2.08a.26.26,0,0,0-.07-.21c-.08-.07-.2-.09-.25-.2v5a.76.76,0,0,1,.59-.09s0-.85,0-.73v-3.54c0-.08,0-.73,0-.73a.76.76,0,0,0-.59.09,4.73,4.73,0,0,0,0,.73c0,.59,0,1.18,0,1.77s0,1.18,0,1.76v.4c0,.11,0,.22,0,.34s.28.15.31.32v-5c-.08.23-.32.18-.5.12,0,0,0,.84,0,.73,0,.59,0,1.18,0,1.77s0,1.18,0,1.76v.4a2,2,0,0,0,0,.34,4,4,0,0,1,1,.74v-5c-1.05.08-2-.46-3.06-.45-.06,0,0,5,0,5Z" transform="translate(-49.61 -42.45)"/><path class="cls-5" d="M294.83,340.69a1.52,1.52,0,0,1,.9.4l.95.73a1.7,1.7,0,0,0,0-.22c0-.17,0-.34,0-.52,0-.59,0-1.17,0-1.76s0-1.18,0-1.77v-.39c0-.12,0-.23,0-.34l-.95-.73a1.52,1.52,0,0,0-.9-.4s0,5,0,5Z" transform="translate(-49.61 -42.45)"/><path class="cls-5" d="M295.69,336.41a16.83,16.83,0,0,1-1.16-1.73,1.7,1.7,0,0,0,0,.22c0,.17,0,.34,0,.52,0,.59,0,1.18,0,1.76s0,1.18,0,1.77v.39c0,.12,0,.23,0,.34a16.83,16.83,0,0,0,1.16,1.73,1.48,1.48,0,0,0,0-.21c0-.18,0-.35,0-.52,0-.59,0-1.18,0-1.77s0-1.18,0-1.77v-.39c0-.11,0-.23,0-.34Z" transform="translate(-49.61 -42.45)"/></svg>